<?xml version="1.0" encoding="UTF-8" standalone="no"?>
<!DOCTYPE svg PUBLIC "-//W3C//DTD SVG 1.1//EN" "http://www.w3.org/Graphics/SVG/1.1/DTD/svg11.dtd">
<svg width="100%" height="100%" viewBox="0 0 393 160" version="1.1" xmlns="http://www.w3.org/2000/svg" xmlns:xlink="http://www.w3.org/1999/xlink" xml:space="preserve" xmlns:serif="http://www.serif.com/" style="fill-rule:evenodd;clip-rule:evenodd;stroke-linejoin:round;stroke-miterlimit:2;">
    <g transform="matrix(1.33378,0,0,0.994956,-749.668,-1210.39)">
        <rect x="574.066" y="1296.93" width="11.996" height="64.324"/>
    </g>
    <g transform="matrix(-1.33378,0,0,0.994956,941.716,-1210.39)">
        <rect x="574.066" y="1296.93" width="11.996" height="64.324"/>
    </g>
    <g transform="matrix(1.33378,0,0,0.705456,-677.668,-866.927)">
        <rect x="574.066" y="1296.93" width="11.996" height="64.324"/>
    </g>
    <g transform="matrix(1,0,0,1,-548.04,-1205.2)">
        <path d="M644.05,1285.2C657.296,1285.2 668.05,1295.95 668.05,1309.2C668.05,1322.44 657.296,1333.2 644.05,1333.2C630.804,1333.2 620.05,1322.44 620.05,1309.2C620.05,1295.95 630.804,1285.2 644.05,1285.2ZM644.05,1317.2C648.465,1317.2 652.05,1313.61 652.05,1309.2C652.05,1304.78 648.465,1301.2 644.05,1301.2C639.635,1301.2 636.05,1304.78 636.05,1309.2C636.05,1313.61 639.635,1317.2 644.05,1317.2Z"/>
    </g>
    <g transform="matrix(1,0,0,1,-548.04,-1198.11)">
        <path d="M628.05,1246.11C628.05,1281.43 599.373,1310.11 564.05,1310.11L564.05,1262.11C564.05,1257.87 565.736,1253.8 568.736,1250.8C571.737,1247.8 575.807,1246.11 580.05,1246.11L628.05,1246.11ZM580.05,1262.11C580.05,1262.11 580.05,1291.38 580.05,1291.38C593.68,1286.55 604.491,1275.74 609.314,1262.11L580.05,1262.11Z"/>
    </g>
    <g transform="matrix(-1,0,0,1,740.089,-1198.11)">
        <path d="M628.05,1246.11L580.05,1246.11C575.807,1246.11 571.737,1247.8 568.736,1250.8C565.736,1253.8 564.05,1257.87 564.05,1262.11L564.05,1310.11C599.373,1310.11 628.05,1281.43 628.05,1246.11ZM580.05,1262.11L609.314,1262.11C604.49,1275.74 593.68,1286.55 580.05,1291.38L580.05,1262.11Z"/>
    </g>
    <g transform="matrix(-1.33378,5.4447e-17,6.09235e-17,-0.994956,1142.47,1370.39)">
        <rect x="574.066" y="1296.93" width="11.996" height="64.324"/>
    </g>
    <g transform="matrix(-1,0,0,-1,940.84,1358.11)">
        <path d="M628.05,1246.11C628.05,1281.43 599.373,1310.11 564.05,1310.11L564.05,1262.11C564.05,1257.87 565.736,1253.8 568.736,1250.8C571.737,1247.8 575.807,1246.11 580.05,1246.11L628.05,1246.11ZM580.05,1262.11C580.05,1262.11 580.05,1291.38 580.05,1291.38C593.68,1286.55 604.491,1275.74 609.314,1262.11L580.05,1262.11Z"/>
    </g>
    <g transform="matrix(1.2895,0,0,1.2895,-780.784,-1584.86)">
        <g transform="matrix(93.822,0,0,93.822,798.765,1314.6)">
        </g>
        <text x="742.566px" y="1314.6px" style="font-family:'SecularOne-Regular', 'Secular One';font-size:93.822px;">u</text>
    </g>
    <g transform="matrix(1.2895,0,0,1.2895,-713.019,-1584.86)">
        <g transform="matrix(93.822,0,0,93.822,795.388,1314.6)">
        </g>
        <text x="742.566px" y="1314.6px" style="font-family:'SecularOne-Regular', 'Secular One';font-size:93.822px;">e</text>
    </g>
</svg>
