<?xml version="1.0" encoding="UTF-8" standalone="no"?>
<!DOCTYPE svg PUBLIC "-//W3C//DTD SVG 1.1//EN" "http://www.w3.org/Graphics/SVG/1.1/DTD/svg11.dtd">
<svg width="100%" height="100%" viewBox="0 0 393 160" version="1.1" xmlns="http://www.w3.org/2000/svg" xmlns:xlink="http://www.w3.org/1999/xlink" xml:space="preserve" xmlns:serif="http://www.serif.com/" style="fill-rule:evenodd;clip-rule:evenodd;stroke-linejoin:round;stroke-miterlimit:2;">
    <path d="M104.01,81.368C113.327,84.666 120.01,93.559 120.01,104C120.01,117.246 109.256,128 96.01,128C82.764,128 72.01,117.246 72.01,104C72.01,93.559 78.692,84.666 88.01,81.368L88.01,48L104.01,48L104.01,81.368ZM96.01,112C100.425,112 104.01,108.415 104.01,104C104.01,99.585 100.425,96 96.01,96C91.594,96 88.01,99.585 88.01,104C88.01,108.415 91.594,112 96.01,112Z" style="fill:rgb(23,137,58);"/>
    <path d="M16.01,144L16.01,64C16.01,59.757 17.695,55.687 20.696,52.686C23.697,49.686 27.766,48 32.01,48L80.01,48C80.01,77.799 59.6,102.868 32.01,109.98L32.01,144L16.01,144ZM32.01,93.264C45.64,88.441 56.45,77.63 61.274,64L32.01,64C32.01,64 32.01,72.258 32.01,80C32.01,85.627 32.01,91.054 32.01,93.264Z" style="fill:rgb(23,137,58);"/>
    <path d="M160.039,109.98C132.448,102.868 112.039,77.799 112.039,48L160.039,48C164.282,48 168.352,49.686 171.352,52.686C174.353,55.687 176.039,59.757 176.039,64L176.039,144L160.039,144L160.039,109.98ZM160.039,93.264L160.039,64L130.774,64C135.598,77.63 146.409,88.441 160.039,93.264Z" style="fill:rgb(23,137,58);"/>
    <path d="M376.79,16L376.79,96C376.79,100.243 375.105,104.313 372.104,107.314C369.103,110.314 365.034,112 360.79,112L312.79,112C312.79,82.201 333.2,57.132 360.79,50.02L360.79,16L376.79,16ZM360.79,66.736C347.16,71.559 336.35,82.37 331.526,96L360.79,96C360.79,96 360.79,87.742 360.79,80C360.79,74.373 360.79,68.946 360.79,66.736Z" style="fill:rgb(23,137,58);"/>
    <g transform="matrix(1.2895,0,0,1.2895,-780.784,-1584.86)">
        <path d="M764.708,1315.91C759.579,1315.91 755.545,1314.35 752.605,1311.22C749.665,1308.1 748.195,1303.81 748.195,1298.37L748.195,1266.28L761.424,1266.28L761.424,1296.21C761.424,1298.78 762.05,1300.76 763.301,1302.17C764.552,1303.58 766.24,1304.28 768.367,1304.28C770.494,1304.28 772.542,1303.59 774.512,1302.22C776.483,1300.84 778.124,1299 779.438,1296.68L779.438,1266.28L792.667,1266.28L792.667,1314.6L779.438,1314.6L779.438,1308.22C777.624,1310.66 775.544,1312.55 773.199,1313.9C770.853,1315.24 768.023,1315.91 764.708,1315.91Z" style="fill:rgb(23,137,58);fill-rule:nonzero;"/>
    </g>
    <g transform="matrix(1.2895,0,0,1.2895,-713.019,-1584.86)">
        <path d="M771.463,1316.01C763.645,1316.01 757.499,1313.76 753.027,1309.25C748.555,1304.75 746.319,1298.49 746.319,1290.49C746.319,1285.3 747.288,1280.78 749.227,1276.93C751.166,1273.08 753.903,1270.13 757.437,1268.07C760.971,1266 765.114,1264.97 769.868,1264.97C776.873,1264.97 782.253,1267.22 786.005,1271.72C789.758,1276.23 791.635,1282.73 791.635,1291.24C791.635,1292.68 791.604,1293.74 791.541,1294.43L759.642,1294.43C760.267,1297.74 761.706,1300.26 763.957,1301.98C766.209,1303.7 769.243,1304.56 773.058,1304.56C775.372,1304.56 777.78,1304.26 780.282,1303.67C782.784,1303.08 784.973,1302.28 786.85,1301.28L789.008,1311.88C786.506,1313.19 783.738,1314.21 780.705,1314.93C777.671,1315.65 774.59,1316.01 771.463,1316.01ZM778.969,1284.48C778.781,1281.79 777.843,1279.65 776.154,1278.06C774.465,1276.46 772.214,1275.66 769.399,1275.66C766.709,1275.66 764.505,1276.45 762.785,1278.01C761.064,1279.57 759.986,1281.73 759.548,1284.48L778.969,1284.48Z" style="fill:rgb(23,137,58);fill-rule:nonzero;"/>
    </g>
</svg>
